<svg xmlns="http://www.w3.org/2000/svg" width="98.164" height="99.59" viewBox="0 0 98.164 99.59"><g transform="translate(-10.589 -10.32)"><path fill="#fff" d="M55.747,93.148c-19.733,0-42.154-23.769-40.361-43.5C17.179,30.81,42.294,13.32,60.9,16.011,77.273,18.252,91.85,38.883,90.95,55.252,90.057,72.515,73.012,93.148,55.747,93.148Z" data-name="Path 45" transform="translate(5.175 5.97)"/><path fill="#00aff0" d="M75.051,109.2c-1.347-.448-3.366-.9-4.486-1.345-1.345-.671-2.916-.671-7.847-.448a50.526,50.526,0,0,1-10.538-.45A47.375,47.375,0,0,1,14.732,72.88c-.9-3.363-1.12-5.157-1.12-13.229,0-8.747-.225-9.418-1.345-13.006A27.069,27.069,0,0,1,37.828,10.32a28.5,28.5,0,0,1,11.211,2.466c1.8.9,2.916,1.12,9.865,1.12,6.279,0,8.745.225,11.883,1.123A47.361,47.361,0,0,1,102.4,40.591,45.315,45.315,0,0,1,106.663,65.7c-.448,4.936-.448,5.384.673,8.3a27.483,27.483,0,0,1-8.52,29.823A36.251,36.251,0,0,1,87.38,109.43a31.443,31.443,0,0,1-12.111-.225h-.219ZM68.995,91.938C76.4,90.37,82.9,85.884,85.364,80.5,88.5,74,87.605,66.376,83.346,61.667c-3.588-4.036-8.97-6.277-21.751-9.416-8.522-2.018-10.54-2.916-12.333-4.934-1.57-1.8-1.8-3.139-.448-5.157,1.345-2.243,4.709-3.588,9.193-3.811,6.5-.448,9.418,1.12,13.229,7.175,2.916,4.486,5.829,5.606,9.645,3.811,4.932-2.466,4.484-10.538-.9-15.247C74.824,29.83,69.22,28.035,59.8,28.035c-9.865,0-16.594,2.018-21.078,6.5-3.588,3.588-4.259,5.606-4.259,11.211,0,5.829.673,7.622,4.484,10.988,4.036,3.811,7.4,5.159,19.506,8.072,8.522,2.018,10.765,3.139,12.781,5.382a5.473,5.473,0,0,1,1.347,4.036c0,2.243-.225,2.691-2.018,4.486C67.872,81.4,63.836,82.521,58.679,82.3c-6.054-.45-8.745-2.243-11.883-8.522-2.243-4.259-4.036-5.829-6.952-5.829-6.5,0-8.745,5.382-5.382,12.331,2.916,6.056,8.745,10.092,16.145,11.661,4.484.9,14.351.9,18.612,0h-.225Z" data-name="Path 46"/></g></svg>