<?xml version="1.0" encoding="UTF-8" standalone="no"?><svg xmlns="http://www.w3.org/2000/svg" viewBox="0 0 25 25"><defs><style>.cls-1{isolation:isolate;}.cls-2{fill:#b72134;}.cls-3{fill:#fff;}.cls-4{fill:#54cbf1;}.cls-5{fill:#349f8a;}.cls-6{fill:#7fa456;}.cls-7{fill:#3fc685;}.cls-8{fill:#d32071;}.cls-9{fill:#53299d;}.cls-10{fill:#e8b543;}.cls-11{fill:#c4c6ca;mix-blend-mode:multiply;}.cls-12{fill:#419ebe;}.cls-13{fill:#287b6d;}.cls-14{fill:#627f44;}.cls-15{fill:#2f9a69;}.cls-16{fill:#a21959;}.cls-17{fill:#8d1b29;}.cls-18{fill:#401f7c;}.cls-19{fill:#b28d35;}.cls-20{fill:none;}</style></defs><title>Slack Chat_Social_Interface</title><g class="cls-1" style="isolation:isolate"><g id="Layer_2" data-name="Layer 2"><g id="Layer_1_copy" data-name="Layer 1 copy"><g id="Slack"><path class="cls-2" d="M19 6.44a2 2 0 0 0-1.59-.8H7.64a2 2 0 0 0-2 2v9.72a2 2 0 0 0 2 2h9.72a2 2 0 0 0 2-2V7.64a2 2 0 0 0-.36-1.2z" fill="#b72134"/><path class="cls-3" transform="translate(-3.06 4.16) rotate(-16.84)" fill="#fff" d="M8.68 8.55h7.7v7.7h-7.7z"/><path class="cls-4" d="M15.09 7.6l-.59-2H7.64a2 2 0 0 0-1.09.4l1.18 3.83z" fill="#54cbf1"/><path class="cls-5" d="M6.55 6a2 2 0 0 0-.92 1.68v2.83l2.09-.63z" fill="#349f8a"/><path class="cls-6" d="M19 6.44a2 2 0 0 0-1.59-.8H14.5l.59 2z" fill="#7fa456"/><path class="cls-7" d="M7.73 9.83l-2.09.63v6.9a2 2 0 0 0 .31 1.06l4-1.21z" fill="#3fc685"/><path class="cls-8" d="M10 17.2l.65 2.16h6.75a2 2 0 0 0 1.14-.36l-1.21-4z" fill="#d32071"/><path class="cls-2" d="M17.33 15l1.21 4a2 2 0 0 0 .83-1.61v-3z" fill="#b72134"/><path class="cls-9" d="M5.95 18.42a2 2 0 0 0 1.69.94h3L10 17.2z" fill="#53299d"/><path class="cls-10" d="M17.33 15l2-.62V7.64a2 2 0 0 0-.33-1.2L15.09 7.6z" fill="#e8b543"/><path d="M11.72 14.77a2.07 2.07 0 0 1-.74-.43.49.49 0 0 1-.19-.37.39.39 0 0 1 .12-.28.39.39 0 0 1 .29-.12.37.37 0 0 1 .24.08A2.09 2.09 0 0 0 12 14a1.71 1.71 0 0 0 .63.1 1.25 1.25 0 0 0 .68-.17.5.5 0 0 0 .28-.43.56.56 0 0 0-.28-.49 2.41 2.41 0 0 0-.89-.27q-1.53-.22-1.53-1.43a1.29 1.29 0 0 1 .23-.77 1.46 1.46 0 0 1 .63-.5 2.23 2.23 0 0 1 .89-.17 2.54 2.54 0 0 1 .83.13 2 2 0 0 1 .65.35.47.47 0 0 1 .2.37.4.4 0 0 1-.12.28.38.38 0 0 1-.28.12.31.31 0 0 1-.19-.06 1.88 1.88 0 0 0-.51-.27 1.69 1.69 0 0 0-.58-.12 1.21 1.21 0 0 0-.68.16.52.52 0 0 0 0 .89 2.36 2.36 0 0 0 .78.25 4.08 4.08 0 0 1 1 .27 1.23 1.23 0 0 1 .54.45 1.38 1.38 0 0 1 .18.75 1.25 1.25 0 0 1-.25.77 1.6 1.6 0 0 1-.66.51 2.22 2.22 0 0 1-.89.18 2.92 2.92 0 0 1-.94-.13z"/><path class="cls-11" d="M17.36 6.24a1.4 1.4 0 0 1 1.4 1.4v9.72a1.4 1.4 0 0 1-1.4 1.4H7.64a1.4 1.4 0 0 1-1.4-1.4V7.64a1.4 1.4 0 0 1 1.4-1.4h9.72m0-.6H7.64a2 2 0 0 0-2 2v9.72a2 2 0 0 0 2 2h9.72a2 2 0 0 0 2-2V7.64a2 2 0 0 0-2-2z" style="mix-blend-mode:multiply" fill="#c4c6ca"/></g><path class="cls-12" d="M6.74 6.57a1.39 1.39 0 0 1 .9-.34h7l-.18-.6H7.64a2 2 0 0 0-.52.08L7 5.75a2 2 0 0 0-.45.25z" fill="#419ebe"/><path class="cls-13" d="M6.24 7.64a1.39 1.39 0 0 1 .5-1.06L6.55 6a2 2 0 0 0-.36.3 2 2 0 0 0-.23.31l-.06.11a2 2 0 0 0-.16.28v.13a2 2 0 0 0-.06.47v2.83l.6-.18z" fill="#287b6d"/><path class="cls-14" d="M14.5 5.64l.18.6h2.68a1.39 1.39 0 0 1 1 .39l.64-.19a2.05 2.05 0 0 0-.29-.31 2 2 0 0 0-.3-.2h-.08a2 2 0 0 0-.32-.12h-.11a2 2 0 0 0-.44-.05H14.5z" fill="#627f44"/><path class="cls-15" d="M6.55 18.23a1.39 1.39 0 0 1-.31-.87v-7.08l-.6.18v6.9a1.93 1.93 0 0 0 .08.52v.09a2.05 2.05 0 0 0 .2.45z" fill="#2f9a69"/><path class="cls-16" d="M18.35 18.35a1.4 1.4 0 0 1-1 .41h-6.92l.18.6h6.75a1.94 1.94 0 0 0 .58-.1h.08a2 2 0 0 0 .51-.27z" fill="#a21959"/><path class="cls-17" d="M18.76 17.36a1.4 1.4 0 0 1-.41 1l.19.62a2 2 0 0 0 .32-.29v-.06a2 2 0 0 0 .2-.29l.05-.1a2 2 0 0 0 .12-.31v-.11a2 2 0 0 0 .06-.45v-3l-.6.18z" fill="#8d1b29"/><path class="cls-18" d="M10.61 19.36l-.18-.6H7.64a1.39 1.39 0 0 1-1.09-.53l-.61.18a2 2 0 0 0 .67.66l.09.05a2 2 0 0 0 .33.14h.12a2 2 0 0 0 .47.06z" fill="#401f7c"/><path class="cls-19" d="M19.28 7.11v-.16a2 2 0 0 0-.09-.21v-.07a2.1 2.1 0 0 0-.19-.23l-.63.19a1.39 1.39 0 0 1 .44 1v6.9l.6-.18V7.64a2 2 0 0 0 0-.36c-.1-.06-.11-.12-.13-.17z" fill="#b28d35"/><path class="cls-20" fill="none" d="M0 0h25v25H0z"/></g></g></g><metadata><rdf:RDF xmlns:rdf="http://www.w3.org/1999/02/22-rdf-syntax-ns#" xmlns:rdfs="http://www.w3.org/2000/01/rdf-schema#" xmlns:dc="http://purl.org/dc/elements/1.1/"><rdf:Description about="https://iconscout.com/legal#licenses" dc:title="slack,chat,social,interface" dc:description="slack,chat,social,interface" dc:publisher="Iconscout" dc:date="2018-02-01" dc:format="image/svg+xml" dc:language="en"><dc:creator><rdf:Bag><rdf:li>Bohdan Kononets</rdf:li></rdf:Bag></dc:creator></rdf:Description></rdf:RDF></metadata></svg>